#!OML:ASF X:\für Bonn\!DataBase\2005_08_11_Bastian_Final\c3d\Bastian.ASF
:FULLY-SPECIFIED
:DEGREES
609
root -0.263045 1.12963 26.1069 -995.729 -1.72326 -901.075
lowerback 5.30903 -1.37921 0.391498
upperback 9.46485 -2.61815 -0.232825
thorax 6.8819 -1.65728 -0.528466
lowerneck -17.6732 -2.20104 2.76554
upperneck 19.7683 -3.3149 -1.31103
head 9.05124 -1.35851 -1.30948
rclavicle 2.70347e-014 -1.31198e-014
rhumerus -62.2339 61.1698 -112.3
rradius 28.4691
rwrist -9.55763
rhand -15.1759 -0.851521
rfingers 7.12502
rthumb 10.9951 -30.5436
lclavicle 2.70347e-014 -1.31198e-014
lhumerus -223.22 -132.632 274.835
lradius 22.5144
lwrist 28.4447
lhand -11.4797 -2.8653
lfingers 7.12502
lthumb 14.5583 26.6038
rfemur -4.92849 3.07973 22.3637
rtibia 31.6007
rfoot -7.77303 -23.5152
rtoes -11.5413
lfemur 1.16058 2.56225 -17.267
ltibia 19.9558
lfoot -6.22318 13.3132
ltoes 8.43302
610
root -0.262446 1.1303 26.1067 -995.729 -1.72367 -901.055
lowerback 5.28367 -1.42204 0.345906
upperback 9.42025 -2.66911 -0.23255
thorax 6.84909 -1.6824 -0.502346
lowerneck -17.89 -2.12134 2.95089
upperneck 19.6335 -3.26008 -1.36938
head 9.04106 -1.33409 -1.35547
rclavicle 4.77083e-015 1.47101e-014
rhumerus -62.9997 61.5142 -113.129
rradius 28.5456
rwrist -9.98251
rhand -15.2121 -0.906848
rfingers 7.12502
rthumb 10.9602 -30.6008
lclavicle 4.77083e-015 1.47101e-014
lhumerus -223.073 -132.862 274.564
lradius 22.2955
lwrist 28.4507
lhand -11.4504 -2.78795
lfingers 7.12502
lthumb 14.5866 26.6791
rfemur -4.9189 3.08363 22.3671
rtibia 31.6016
rfoot -7.81968 -23.5739
rtoes -11.5546
lfemur 1.16302 2.6035 -17.2508
ltibia 19.9542
lfoot -6.19424 13.3351
ltoes 8.07082
611
root -0.262589 1.13071 26.1064 -995.706 -1.7486 -901.063
lowerback 5.22843 -1.44599 0.29783
upperback 9.38607 -2.69451 -0.24276
thorax 6.84451 -1.69441 -0.487285
lowerneck -18.144 -2.04816 3.12072
upperneck 19.5169 -3.21608 -1.40964
head 9.04436 -1.31338 -1.3948
rclavicle 1.74931e-014 -1.15295e-014
rhumerus -63.4494 61.7447 -113.649
rradius 28.5639
rwrist -10.2259
rhand -15.2084 -0.95006
rfingers 7.12502
rthumb 10.9638 -30.6438
lclavicle 1.74931e-014 -1.15295e-014
lhumerus -222.904 -133.054 274.291
lradius 22.0854
lwrist 28.4825
lhand -11.4705 -2.7416
lfingers 7.12502
lthumb 14.5672 26.7269
rfemur -4.93932 3.04589 22.3239
rtibia 31.6078
rfoot -7.85864 -23.542
rtoes -11.5246
lfemur 1.1489 2.63109 -17.271
ltibia 19.9441
lfoot -6.20748 13.3839
ltoes 8.11061
612
root -0.262518 1.13081 26.1058 -995.694 -1.74762 -901.052
lowerback 5.19308 -1.49022 0.250535
upperback 9.34374 -2.74884 -0.225214
thorax 6.82103 -1.72218 -0.442836
lowerneck -18.3504 -1.96236 3.25863
upperneck 19.3669 -3.14161 -1.46349
head 9.0286 -1.28346 -1.42841
rclavicle -5.56597e-015 2.38542e-015
rhumerus -64.0803 62.037 -114.3
rradius 28.6222
rwrist -10.5442
rhand -15.2247 -0.978739
rfingers 7.12502
rthumb 10.948 -30.6733
lclavicle -5.56597e-015 2.38542e-015
lhumerus -222.763 -133.287 274.065
lradius 21.8881
lwrist 28.5002
lhand -11.4889 -2.66921
lfingers 7.12502
lthumb 14.5495 26.8006
rfemur -4.95009 2.98652 22.3143
rtibia 31.6099
rfoot -7.84995 -23.5206
rtoes -11.6253
lfemur 1.1398 2.66688 -17.2565
ltibia 19.9381
lfoot -6.19802 13.4078
ltoes 7.98915
613
root -0.262124 1.13157 26.1058 -995.684 -1.75165 -901.053
lowerback 5.1651 -1.52026 0.210157
upperback 9.29621 -2.78221 -0.222866
thorax 6.78682 -1.73795 -0.417369
lowerneck -18.5804 -1.89163 3.41827
upperneck 19.263 -3.09611 -1.50905
head 9.0321 -1.26247 -1.46717
rclavicle -2.06736e-014 1.35174e-014
rhumerus -64.5029 62.2078 -114.785
rradius 28.6046
rwrist -10.7214
rhand -15.2209 -0.986137
rfingers 7.12502
rthumb 10.9517 -30.6805
lclavicle -2.06736e-014 1.35174e-014
lhumerus -222.631 -133.508 273.828
lradius 21.6877
lwrist 28.4708
lhand -11.4799 -2.63441
lfingers 7.12502
lthumb 14.5582 26.8347
rfemur -4.95296 3.02544 22.3115
rtibia 31.6164
rfoot -7.93736 -23.5616
rtoes -11.4835
lfemur 1.13703 2.70301 -17.2488
ltibia 19.9236
lfoot -6.18853 13.4525
ltoes 7.86627
614
root -0.261968 1.13141 26.1058 -995.684 -1.74956 -901.044
lowerback 5.16024 -1.55425 0.198575
upperback 9.23738 -2.81861 -0.236196
thorax 6.72512 -1.75226 -0.422757
lowerneck -18.762 -1.81944 3.58638
upperneck 19.1555 -3.05428 -1.5269
head 9.02606 -1.23863 -1.49727
rclavicle 1.90833e-014 -1.23246e-014
rhumerus -65.045 62.368 -115.393
rradius 28.6166
rwrist -10.9562
rhand -15.2131 -1.02201
rfingers 7.12502
rthumb 10.9593 -30.716
lclavicle 1.90833e-014 -1.23246e-014
lhumerus -222.59 -133.638 273.667
lradius 21.4869
lwrist 28.5308
lhand -11.4767 -2.62701
lfingers 7.12502
lthumb 14.5613 26.8419
rfemur -4.95127 2.9991 22.3048
rtibia 31.6194
rfoot -7.98531 -23.5189
rtoes -11.4735
lfemur 1.13815 2.81604 -17.2173
ltibia 19.9133
lfoot -6.11967 13.4043
ltoes 7.76041
615
root -0.261892 1.13151 26.1059 -995.672 -1.77217 -901.03
lowerback 5.12556 -1.5928 0.139252
upperback 9.20084 -2.86508 -0.2331
thorax 6.70771 -1.77649 -0.386871
lowerneck -18.985 -1.74493 3.71884
upperneck 19.0157 -2.99748 -1.57189
head 9.01677 -1.21566 -1.5292
rclavicle -7.95139e-015 -1.43125e-014
rhumerus -65.6279 62.6251 -116.025
rradius 28.6352
rwrist -11.2277
rhand -15.2164 -1.00757
rfingers 7.12502
rthumb 10.9561 -30.7017
lclavicle -7.95139e-015 -1.43125e-014
lhumerus -222.45 -133.85 273.451
lradius 21.3269
lwrist 28.5855
lhand -11.4563 -2.55632
lfingers 7.12502
lthumb 14.5809 26.9112
rfemur -4.96479 3.0037 22.2806
rtibia 31.6242
rfoot -8.00535 -23.5142
rtoes -11.3998
lfemur 1.13518 2.80712 -17.2331
ltibia 19.9004
lfoot -6.18126 13.4731
ltoes 8.13962
616
root -0.261817 1.13094 26.1051 -995.673 -1.77134 -901.022
lowerback 5.12249 -1.62146 0.120509
upperback 9.15512 -2.89685 -0.23934
thorax 6.66011 -1.79022 -0.381333
lowerneck -19.1821 -1.67497 3.88944
upperneck 18.8912 -2.95697 -1.6117
head 9.0072 -1.19554 -1.56725
rclavicle -1.35174e-014 1.63003e-014
rhumerus -66.0866 62.7648 -116.539
rradius 28.6402
rwrist -11.432
rhand -15.2373 -1.02847
rfingers 7.12502
rthumb 10.9358 -30.7237
lclavicle -1.35174e-014 1.63003e-014
lhumerus -222.354 -134.049 273.233
lradius 21.1682
lwrist 28.5811
lhand -11.4695 -2.55255
lfingers 7.12502
lthumb 14.5682 26.9159
rfemur -4.95998 3.04802 22.2858
rtibia 31.6315
rfoot -8.07956 -23.5184
rtoes -11.2328
lfemur 1.14737 2.80167 -17.2211
ltibia 19.8825
lfoot -6.22594 13.5187
ltoes 8.33267
617
root -0.261547 1.13096 26.1052 -995.661 -1.75152 -901.023
lowerback 5.08966 -1.64712 0.115614
upperback 9.10969 -2.92487 -0.230971
thorax 6.62999 -1.80135 -0.369611
lowerneck -19.3554 -1.60274 4.04454
upperneck 18.7542 -2.90629 -1.66002
head 8.98946 -1.17312 -1.60376
rclavicle -4.77083e-015 -2.78299e-015
rhumerus -66.4997 62.899 -116.996
rradius 28.6305
rwrist -11.5861
rhand -15.2389 -1.05035
rfingers 7.12502
rthumb 10.9344 -30.7456
lclavicle -4.77083e-015 -2.78299e-015
lhumerus -222.287 -134.175 273.1
lradius 21.0022
lwrist 28.6587
lhand -11.4412 -2.54689
lfingers 7.12502
lthumb 14.5954 26.9195
rfemur -4.9708 3.04489 22.3069
rtibia 31.6371
rfoot -8.11171 -23.5244
rtoes -11.1828
lfemur 1.14049 2.83714 -17.187
ltibia 19.8633
lfoot -6.19882 13.5469
ltoes 8.16484
618
root -0.261338 1.13084 26.1056 -995.639 -1.77352 -901.012
lowerback 5.03894 -1.67016 0.0755925
upperback 9.08199 -2.95016 -0.239251
thorax 6.63009 -1.81335 -0.357269
lowerneck -19.5998 -1.53985 4.18294
upperneck 18.6347 -2.87716 -1.66587
head 8.99088 -1.15678 -1.62697
rclavicle -1.43125e-014 1.82882e-014
rhumerus -66.7302 62.9929 -117.286
rradius 28.5964
rwrist -11.6856
rhand -15.2225 -1.00249
rfingers 7.12502
rthumb 10.9502 -30.6969
lclavicle -1.43125e-014 1.82882e-014
lhumerus -222.148 -134.327 272.892
lradius 20.8483
lwrist 28.6861
lhand -11.4103 -2.54232
lfingers 7.12502
lthumb 14.6252 26.922
rfemur -4.99491 3.08731 22.2844
rtibia 31.6406
rfoot -8.15883 -23.5435
rtoes -11.2594
lfemur 1.12304 2.87443 -17.1992
ltibia 19.8494
lfoot -6.2116 13.5879
ltoes 8.41799
619
root -0.261514 1.13096 26.1055 -995.638 -1.77367 -901.012
lowerback 5.01122 -1.69628 0.0614206
upperback 9.05717 -2.98141 -0.238019
thorax 6.61958 -1.82785 -0.348554
lowerneck -19.828 -1.47595 4.31485
upperneck 18.5097 -2.83805 -1.70105
head 8.98729 -1.13982 -1.65749
rclavicle 1.03368e-014 -4.77083e-015
rhumerus -67.1298 63.163 -117.739
rradius 28.5953
rwrist -11.8642
rhand -15.2219 -1.03001
rfingers 7.12502
rthumb 10.9507 -30.7244
lclavicle 1.03368e-014 -4.77083e-015
lhumerus -222.097 -134.386 272.806
lradius 20.7051
lwrist 28.8299
lhand -11.4409 -2.54521
lfingers 7.12502
lthumb 14.5957 26.9212
rfemur -4.99286 3.08868 22.2833
rtibia 31.6467
rfoot -8.18777 -23.5586
rtoes -11.2018
lfemur 1.13861 2.81532 -17.2066
ltibia 19.8331
lfoot -6.28617 13.6961
ltoes 8.28246
620
root -0.262096 1.13013 26.1057 -995.628 -1.77433 -900.993
lowerback 4.98576 -1.72464 0.0675034
upperback 9.02025 -3.01242 -0.256509
thorax 6.59257 -1.83916 -0.370948
lowerneck -20.0264 -1.40917 4.48198
upperneck 18.3896 -2.80604 -1.72332
head 8.97963 -1.12127 -1.68967
rclavicle 3.97569e-015 1.19271e-014
rhumerus -67.539 63.2853 -118.212
rradius 28.5988
rwrist -12.073
rhand -15.243 -1.02699
rfingers 7.12502
rthumb 10.9303 -30.7225
lclavicle 3.97569e-015 1.19271e-014
lhumerus -222.041 -134.477 272.667
lradius 20.5525
lwrist 28.8958
lhand -11.4011 -2.5971
lfingers 7.12502
lthumb 14.6341 26.8665
rfemur -5.00171 3.09979 22.2769
rtibia 31.6515
rfoot -8.24849 -23.5851
rtoes -11.1554
lfemur 1.13231 2.83962 -17.1993
ltibia 19.8158
lfoot -6.29365 13.7207
ltoes 8.3143
621
root -0.262137 1.13005 26.1053 -995.617 -1.79806 -900.991
lowerback 4.94809 -1.74491 0.0286528
upperback 8.99281 -3.03424 -0.266524
thorax 6.58547 -1.84954 -0.3605
lowerneck -20.2374 -1.34491 4.64162
upperneck 18.2411 -2.77123 -1.7739
head 8.96406 -1.10648 -1.72974
rclavicle -1.90833e-014 1.47101e-014
rhumerus -68.1579 63.5084 -118.895
rradius 28.6438
rwrist -12.3758
rhand -15.2631 -1.08331
rfingers 7.12502
rthumb 10.911 -30.7798
lclavicle -1.90833e-014 1.47101e-014
lhumerus -221.924 -134.64 272.48
lradius 20.4141
lwrist 28.8822
lhand -11.3743 -2.63942
lfingers 7.12502
lthumb 14.6599 26.8223
rfemur -5.01859 3.10397 22.2501
rtibia 31.6595
rfoot -8.26111 -23.6012
rtoes -11.1643
lfemur 1.12704 2.87298 -17.2154
ltibia 19.7966
lfoot -6.2731 13.7513
ltoes 8.37403
622
root -0.262066 1.12948 26.1051 -995.618 -1.7737 -900.983
lowerback 4.92474 -1.78106 0.0294407
upperback 8.96789 -3.07965 -0.260345
thorax 6.57198 -1.87061 -0.354916
lowerneck -20.4341 -1.27629 4.77426
upperneck 18.1111 -2.72782 -1.79408
head 8.9536 -1.08524 -1.75378
rclavicle -1.59028e-015 -1.35174e-014
rhumerus -68.6326 63.6995 -119.426
rradius 28.6593
rwrist -12.5711
rhand -15.2675 -1.11676
rfingers 7.12502
rthumb 10.9067 -30.8135
lclavicle -1.59028e-015 -1.35174e-014
lhumerus -221.859 -134.775 272.347
lradius 20.2863
lwrist 28.9366
lhand -11.3322 -2.70578
lfingers 7.12502
lthumb 14.7004 26.753
rfemur -5.01157 3.14863 22.2818
rtibia 31.6633
rfoot -8.37285 -23.6485
rtoes -11.028
lfemur 1.13863 2.8351 -17.1883
ltibia 19.7811
lfoot -6.33925 13.8279
ltoes 8.53413
